<?xml version="1.0" encoding="UTF-8" standalone="no"?>
<!-- Created with Inkscape (http://www.inkscape.org/) -->

<svg
   xmlns:dc="http://purl.org/dc/elements/1.1/"
   xmlns:cc="http://creativecommons.org/ns#"
   xmlns:rdf="http://www.w3.org/1999/02/22-rdf-syntax-ns#"
   xmlns:svg="http://www.w3.org/2000/svg"
   xmlns="http://www.w3.org/2000/svg"
   xmlns:sodipodi="http://sodipodi.sourceforge.net/DTD/sodipodi-0.dtd"
   xmlns:inkscape="http://www.inkscape.org/namespaces/inkscape"
   version="1.1"
   width="724.76007"
   height="726.07611"
   id="svg2992"
   xml:space="preserve"
   inkscape:version="0.48.0 r9654"
   sodipodi:docname="bike.svg"><sodipodi:namedview
     pagecolor="#ffffff"
     bordercolor="#666666"
     borderopacity="1"
     objecttolerance="10"
     gridtolerance="10"
     guidetolerance="10"
     inkscape:pageopacity="0"
     inkscape:pageshadow="2"
     inkscape:window-width="1177"
     inkscape:window-height="711"
     id="namedview17"
     showgrid="false"
     inkscape:zoom="0.4021617"
     inkscape:cx="362.38004"
     inkscape:cy="363.03806"
     inkscape:window-x="0"
     inkscape:window-y="0"
     inkscape:window-maximized="0"
     inkscape:current-layer="svg2992" /><metadata
     id="metadata2998"><rdf:RDF><cc:Work
         rdf:about=""><dc:format>image/svg+xml</dc:format><dc:type
           rdf:resource="http://purl.org/dc/dcmitype/StillImage" /><dc:title></dc:title></cc:Work></rdf:RDF></metadata><defs
     id="defs2996" /><path
     inkscape:connector-curvature="0"
     style="fill:#000000;fill-opacity:1;fill-rule:nonzero;stroke:none"
     id="path3004"
     d="m 82.88001,2.19611 c -51.725,0.02875 -80.77,26.7425 -80.75,81.375 l 0,562.625 c -0.02,51.03 26.09375,77.76125 77.75,77.75 l 565,0 c 51.62875,0.0113 77.7825,-25.38875 77.75,-77.75 l 0,-562.625 c 0.0325,-53.30125 -26.12125,-81.34625 -79.375,-81.375 0,0 -560.61,-0.14875 -560.375,0" /><path
     style="fill:#ffffff;fill-opacity:1"
     d="m 153.93403,641.01265 c 63.74201,0 115.46501,-51.723 115.46501,-115.542 0,-63.665 -51.71601,-115.381 -115.46501,-115.381 -63.580995,0 -115.303995,51.723 -115.303995,115.381 0,63.826 51.723,115.542 115.303995,115.542 z M 12.380035,525.47065 c 0,-78.204 63.504,-141.477 141.553995,-141.477 78.288,0 141.71501,63.273 141.71501,141.477 0,78.288 -63.42701,141.631 -141.71501,141.631 -78.049995,0.007 -141.553995,-63.343 -141.553995,-141.631 z"
     id="path3172"
     inkscape:connector-curvature="0" /><path
     style="fill:#ffffff;fill-opacity:1"
     d="m 570.81903,642.34965 c 63.58801,0 115.31101,-51.639 115.31101,-115.458 0,-63.742 -51.723,-115.381 -115.31101,-115.381 -63.735,0 -115.45799,51.639 -115.45799,115.381 0,63.819 51.72299,115.458 115.45799,115.458 z m -141.70799,-115.465 c 0,-78.288 63.504,-141.561 141.70799,-141.561 78.05001,0 141.56101,63.273 141.56101,141.561 0,78.288 -63.50401,141.631 -141.56101,141.631 -78.20399,0.007 -141.70799,-63.343 -141.70799,-141.631 z"
     id="path3174"
     inkscape:connector-curvature="0" /><path
     style="fill:#ffffff;fill-opacity:1"
     d="m 429.50303,181.36465 c 29.40001,0 53.284,-23.737 53.284,-53.13 0,-29.399998 -23.88399,-53.290998 -53.284,-53.290998 -29.39299,0 -53.28399,23.898 -53.28399,53.290998 0,29.393 23.89099,53.13 53.28399,53.13 z"
     id="path3176"
     inkscape:connector-curvature="0" /><path
     style="fill:#ffffff;fill-opacity:1"
     d="m 431.70103,310.58465 c -7.707,0.154 -16.02999,-3.696 -22.169,-13.363 l -34.573,-54.075 -71.36499,70.658 66.178,34.825 c 27.19499,13.048 23.107,36.939 23.107,36.939 v 149.807 c 0,16.975 -13.67801,30.807 -30.653,30.807 -16.975,0 -30.653,-13.839 -30.653,-30.807 v -119.938 l -114.75801,-63.742 c -13.678,-7.623 -22.953,-22.246 -22.953,-38.906 0,-11.48 4.242,-22.015 11.473,-29.869 l 112.553,-112.791 c 13.993,-15.799 33.481,-13.279 33.481,-13.279 23.58301,0 36.00101,20.594 36.00101,20.594 l 58.478,91.644 88.82299,-0.154 c 31.913,0 31.913,41.657 0,41.657 h -102.97 z"
     id="path3178"
     inkscape:connector-curvature="0" /></svg>