<?xml version="1.0" encoding="UTF-8" standalone="no"?>
<!-- Created with Inkscape (http://www.inkscape.org/) -->

<svg
   xmlns:dc="http://purl.org/dc/elements/1.1/"
   xmlns:cc="http://creativecommons.org/ns#"
   xmlns:rdf="http://www.w3.org/1999/02/22-rdf-syntax-ns#"
   xmlns:svg="http://www.w3.org/2000/svg"
   xmlns="http://www.w3.org/2000/svg"
   version="1.1"
   width="724.76007"
   height="726.07446"
   id="svg2"
   xml:space="preserve"><metadata
     id="metadata8"><rdf:RDF><cc:Work
         rdf:about=""><dc:format>image/svg+xml</dc:format><dc:type
           rdf:resource="http://purl.org/dc/dcmitype/StillImage" /><dc:title></dc:title></cc:Work></rdf:RDF></metadata><defs
     id="defs6" /><g
     transform="matrix(1.25,0,0,-1.25,363.59883,205.97569)"
     id="g10"><g
       transform="scale(0.1,0.1)"
       id="g12"><path
         d="m -2246.75,1630.25 c -413.06,-0.27 -645.43,-213.97 -645,-651 l 0,-4501 c -0.43,-408.27 208.48,-622.12 621,-622 l 4521,0 c 412.77,-0.12 622,203.08 622,622 l 0,4501 c 0,426.38 -209.23,650.73 -635,651 0,0 -4485.14,1.16 -4484,0"
         id="path14"
         style="fill:#000000;fill-opacity:1;fill-rule:nonzero;stroke:none" /><path
         d="m -2246.75,1630.25 c -413.06,-0.27 -645.43,-213.97 -645,-651 l 0,-4501 c -0.43,-408.27 208.48,-622.12 621,-622 l 4521,0 c 412.77,-0.12 622,203.08 622,622 l 0,4501 c 0,426.38 -209.23,650.73 -635,651 0,0 -4485.14,1.16 -4484,0 z"
         id="path16"
         style="fill:none;stroke:#000000;stroke-width:34.08000183;stroke-linecap:butt;stroke-linejoin:miter;stroke-miterlimit:10;stroke-opacity:1;stroke-dasharray:none" /><path
         d="m 16.25,777.25 c -402.551,-0.398 -958.488,-115.422 -1189,-211 -229.57,-96.121 -382.93,-191.969 -431,-432 l -172,-1328 0,-1830 297,0 0,-287 c -0.25,-350.5 511.93,-350.5 512,0 l 0,287 1932,0 0,-287 c -0.43,-350.5 511.75,-350.5 512,0 l 0,287 297,0 0,1830 -173,1328 c -47.57,240.031 -200.93,335.879 -431,432 -230.012,95.578 -785.949,210.602 -1188,211"
         id="path18"
         style="fill:#ffffff;fill-opacity:1;fill-rule:nonzero;stroke:none" /><path
         d="m -19.75,225.25 -712,0 c -143.391,0.469 -143.391,216.129 0,216 l 1461,0 c 143.891,0.129 143.891,-215.531 0,-216 l -749,0"
         id="path20"
         style="fill:#000000;fill-opacity:1;fill-rule:nonzero;stroke:none" /><path
         d="m -19.75,8.25 -1099,0 c -152.1,-0.26953 -191.78,-77.4453 -210,-194 l -134,-964 c -13.03,-92.33 13.69,-184 141,-184 l 2641,0 c 127.81,0 154.53,91.67 142,184 l -134,964 c -18.72,116.5547 -58.4,193.73047 -210,194 l -1137,0"
         id="path22"
         style="fill:#000000;fill-opacity:1;fill-rule:nonzero;stroke:none" /></g></g></svg>