<?xml version="1.0" encoding="UTF-8" standalone="no"?>
<!-- Created with Inkscape (http://www.inkscape.org/) -->

<svg
   xmlns:dc="http://purl.org/dc/elements/1.1/"
   xmlns:cc="http://creativecommons.org/ns#"
   xmlns:rdf="http://www.w3.org/1999/02/22-rdf-syntax-ns#"
   xmlns:svg="http://www.w3.org/2000/svg"
   xmlns="http://www.w3.org/2000/svg"
   xmlns:sodipodi="http://sodipodi.sourceforge.net/DTD/sodipodi-0.dtd"
   xmlns:inkscape="http://www.inkscape.org/namespaces/inkscape"
   version="1.1"
   width="724.76007"
   height="726.07446"
   id="svg2"
   xml:space="preserve"
   inkscape:version="0.48.2 r9819"
   sodipodi:docname="bus.svg"><sodipodi:namedview
     pagecolor="#ffffff"
     bordercolor="#666666"
     borderopacity="1"
     objecttolerance="10"
     gridtolerance="10"
     guidetolerance="10"
     inkscape:pageopacity="0"
     inkscape:pageshadow="2"
     inkscape:window-width="1280"
     inkscape:window-height="706"
     id="namedview12"
     showgrid="false"
     inkscape:zoom="0.32503553"
     inkscape:cx="-23.731596"
     inkscape:cy="787.78716"
     inkscape:window-x="0"
     inkscape:window-y="0"
     inkscape:window-maximized="0"
     inkscape:current-layer="svg2" /><metadata
     id="metadata8"><rdf:RDF><cc:Work
         rdf:about=""><dc:format>image/svg+xml</dc:format><dc:type
           rdf:resource="http://purl.org/dc/dcmitype/StillImage" /><dc:title></dc:title></cc:Work></rdf:RDF></metadata><defs
     id="defs6" /><path
     d="m 82.75508,2.19444 c -51.6325,0.03375 -80.67875,26.74625 -80.625,81.375 l 0,562.625 c -0.05375,51.03375 26.06,77.765 77.625,77.75 l 565.125,0 c 51.59625,0.015 77.75,-25.385 77.75,-77.75 l 0,-562.625 c 0,-53.2975 -26.15375,-81.34125 -79.375,-81.375 0,0 -560.6425,-0.145 -560.5,0"
     id="path14"
     style="fill:#000000;fill-opacity:1;fill-rule:nonzero;stroke:none"
     inkscape:connector-curvature="0" /><path
     d="m 82.75508,2.19444 c -51.6325,0.03375 -80.67875,26.74625 -80.625,81.375 l 0,562.625 c -0.05375,51.03375 26.06,77.765 77.625,77.75 l 565.125,0 c 51.59625,0.015 77.75,-25.385 77.75,-77.75 l 0,-562.625 c 0,-53.2975 -26.15375,-81.34125 -79.375,-81.375 0,0 -560.6425,-0.145 -560.5,0 z"
     id="path16"
     style="fill:none;stroke:#000000;stroke-width:4.26000023;stroke-linecap:butt;stroke-linejoin:miter;stroke-miterlimit:10;stroke-opacity:1;stroke-dasharray:none"
     inkscape:connector-curvature="0" /><g
     style="font-size:12px;font-style:normal;font-weight:normal;line-height:125%;letter-spacing:0px;word-spacing:0px;fill:#ffffff;fill-opacity:1;stroke:none;font-family:Bitstream Vera Sans"
     id="text3000"><path
       d="m 308.08316,615.38098 c -8e-5,-14.58327 5.33846,-27.21347 16.01563,-37.89062 10.67697,-10.67699 23.43738,-16.01553 38.28125,-16.01563 14.8436,10e-5 27.604,5.33864 38.28125,16.01563 10.6769,10.67715 16.01543,23.43755 16.01562,38.28125 -1.9e-4,15.10419 -5.33872,27.9948 -16.01562,38.67187 -10.41683,10.41666 -23.17724,15.62499 -38.28125,15.625 -15.36471,-10e-6 -28.25532,-5.20834 -38.67188,-15.625 -10.41675,-10.41665 -15.62508,-23.43747 -15.625,-39.0625 m 10.15625,-90.625 0,-468.749999 88.28125,0 0,468.749999 -88.28125,0"
       style="font-size:800px;font-variant:normal;font-weight:500;font-stretch:normal;fill:#ffffff;font-family:Futura;-inkscape-font-specification:Futura Medium"
       id="path3005" /></g></svg>