<?xml version="1.0" encoding="UTF-8" standalone="no"?>
<!-- Created with Inkscape (http://www.inkscape.org/) -->

<svg
   xmlns:dc="http://purl.org/dc/elements/1.1/"
   xmlns:cc="http://creativecommons.org/ns#"
   xmlns:rdf="http://www.w3.org/1999/02/22-rdf-syntax-ns#"
   xmlns:svg="http://www.w3.org/2000/svg"
   xmlns="http://www.w3.org/2000/svg"
   version="1.1"
   width="724.85999"
   height="726.00671"
   id="svg3018"
   xml:space="preserve"><metadata
     id="metadata3024"><rdf:RDF><cc:Work
         rdf:about=""><dc:format>image/svg+xml</dc:format><dc:type
           rdf:resource="http://purl.org/dc/dcmitype/StillImage" /><dc:title></dc:title></cc:Work></rdf:RDF></metadata><defs
     id="defs3022"><clipPath
       id="clipPath3034"><path
         d="M 0,0 615,0 615,614 0,614 0,0 z"
         id="path3036" /></clipPath></defs><g
     transform="matrix(1.25,0,0,-1.25,-22.1325,746.18917)"
     id="g3026"><g
       id="g3028" /><g
       id="g3030"><g
         clip-path="url(#clipPath3034)"
         id="g3032"><path
           d="M 83.97,595.17 C 42.645,595.202 19.409,573.831 19.41,530.13 l 0,-450.12 C 19.409,39.201 40.3,17.816 81.57,17.85 l 452.04,0 c 41.318,-0.034 62.241,20.286 62.28,62.16 l 0,450.12 c -0.039,42.636 -20.962,65.072 -63.6,65.04 0,0 -448.453,0.174 -448.32,0 z"
           id="path3038"
           style="fill:#000000;fill-opacity:1;fill-rule:nonzero;stroke:#000000;stroke-width:3.40799999;stroke-linecap:butt;stroke-linejoin:miter;stroke-miterlimit:10;stroke-opacity:1;stroke-dasharray:none" /><path
           d="m 307.29,137.13 67.68,0 49.32,-72.36 39.84,0 -69,103.56 c 22.992,3.67 45.899,27.67 45.84,56.88 l 0,213.84 c 0.059,30.25 -25.341,57.964 -59.88,57.96 l -147.6,0 c -34.497,0.004 -59.897,-27.71 -59.88,-57.96 l 0,-213.84 C 173.593,196 196.5,172 219.57,168.33 l -69.12,-103.56 39.84,0 49.44,72.36 67.56,0"
           id="path3040"
           style="fill:#ffffff;fill-opacity:1;fill-rule:nonzero;stroke:none" /><path
           d="m 285.21,503.25 c -9.107,0.004 -16.534,7.432 -16.56,16.56 0.026,9.2 7.453,16.628 16.56,16.68 9.22,-0.052 16.649,-7.48 16.68,-16.68 -0.031,-9.128 -7.46,-16.556 -16.68,-16.56"
           id="path3042"
           style="fill:#ffffff;fill-opacity:1;fill-rule:nonzero;stroke:none" /><path
           d="m 329.37,503.25 c 9.149,0.004 16.576,7.432 16.56,16.56 0.016,9.2 -7.411,16.628 -16.56,16.68 -9.178,-0.052 -16.607,-7.48 -16.56,-16.68 -0.047,-9.128 7.382,-16.556 16.56,-16.56"
           id="path3044"
           style="fill:#ffffff;fill-opacity:1;fill-rule:nonzero;stroke:none" /><path
           d="m 381.81,199.53 c 14.458,-0.043 26.216,11.716 26.16,26.16 0.056,14.565 -11.702,26.323 -26.16,26.28 -14.552,0.043 -26.31,-11.715 -26.28,-26.28 -0.03,-14.444 11.728,-26.203 26.28,-26.16"
           id="path3046"
           style="fill:#000000;fill-opacity:1;fill-rule:nonzero;stroke:none" /><path
           d="m 307.29,338.37 71.88,0 c 16.452,0.054 29.952,11.38 29.76,29.88 l 0,38.52 c 0.04,15.98 -10.308,29.942 -29.76,30 l -143.64,0 c -19.53,-0.058 -29.878,-14.02 -29.88,-30 l 0,-38.52 c -0.15,-18.5 13.35,-29.826 29.88,-29.88 l 71.76,0"
           id="path3048"
           style="fill:#000000;fill-opacity:1;fill-rule:nonzero;stroke:none" /><path
           d="m 307.29,448.29 29.04,0 c 5.542,-0.053 9.858,4.46 9.84,9.72 l 0,17.04 c 0.018,5.2 -4.548,9.61 -9.84,9.6 l -58.08,0 c -5.25,0.01 -9.816,-4.4 -9.84,-9.6 l 0,-17.04 c 0.024,-5.26 4.34,-9.773 9.84,-9.72 l 29.04,0"
           id="path3050"
           style="fill:#000000;fill-opacity:1;fill-rule:nonzero;stroke:none" /><path
           d="m 232.29,199.53 c -14.545,-0.043 -26.303,11.716 -26.28,26.16 -0.023,14.565 11.735,26.323 26.28,26.28 14.465,0.043 26.223,-11.715 26.28,-26.28 -0.057,-14.444 -11.815,-26.203 -26.28,-26.16"
           id="path3052"
           style="fill:#000000;fill-opacity:1;fill-rule:nonzero;stroke:none" /></g></g></g></svg>