<?xml version="1.0" encoding="UTF-8" standalone="no"?>
<!-- Created with Inkscape (http://www.inkscape.org/) -->

<svg
   xmlns:dc="http://purl.org/dc/elements/1.1/"
   xmlns:cc="http://creativecommons.org/ns#"
   xmlns:rdf="http://www.w3.org/1999/02/22-rdf-syntax-ns#"
   xmlns:svg="http://www.w3.org/2000/svg"
   xmlns="http://www.w3.org/2000/svg"
   xmlns:sodipodi="http://sodipodi.sourceforge.net/DTD/sodipodi-0.dtd"
   xmlns:inkscape="http://www.inkscape.org/namespaces/inkscape"
   id="svg2"
   version="1.1"
   inkscape:version="0.48.0 r9654"
   width="724.76007"
   height="726.07611"
   xml:space="preserve"
   sodipodi:docname="tram.svg"><metadata
     id="metadata8"><rdf:RDF><cc:Work
         rdf:about=""><dc:format>image/svg+xml</dc:format><dc:type
           rdf:resource="http://purl.org/dc/dcmitype/StillImage" /><dc:title></dc:title></cc:Work></rdf:RDF></metadata><defs
     id="defs6" /><sodipodi:namedview
     pagecolor="#ffffff"
     bordercolor="#666666"
     borderopacity="1"
     objecttolerance="10"
     gridtolerance="10"
     guidetolerance="10"
     inkscape:pageopacity="0"
     inkscape:pageshadow="2"
     inkscape:window-width="1280"
     inkscape:window-height="706"
     id="namedview4"
     showgrid="false"
     fit-margin-top="0"
     fit-margin-left="0"
     fit-margin-right="0"
     fit-margin-bottom="0"
     inkscape:zoom="0.29494949"
     inkscape:cx="676.66726"
     inkscape:cy="55.347083"
     inkscape:window-x="0"
     inkscape:window-y="0"
     inkscape:window-maximized="0"
     inkscape:current-layer="g10" /><g
     id="g10"
     inkscape:groupmode="layer"
     inkscape:label="ink_ext_XXXXXX"
     transform="matrix(1.25,0,0,-1.25,183.20817,784.28519)"><path
       inkscape:connector-curvature="0"
       id="path14"
       style="fill:#000000;fill-opacity:1;fill-rule:nonzero;stroke:none"
       d="m -80.262534,625.67126 c -41.379996,-0.023 -64.615996,-21.394 -64.599996,-65.1 l 0,-450.1 c -0.016,-40.824 20.875,-62.209 62.199996,-62.2 l 452.000004,0 c 41.303,-0.009 62.226,20.311 62.2,62.2 l 0,450.1 c 0.026,42.641 -20.897,65.077 -63.5,65.1 0,0 -448.488004,0.119 -448.300004,0" /><path
       inkscape:connector-curvature="0"
       id="path16"
       style="fill:none;stroke:#000000;stroke-width:3.40800023;stroke-linecap:butt;stroke-linejoin:miter;stroke-miterlimit:10;stroke-opacity:1;stroke-dasharray:none"
       d="m -80.262534,625.67126 c -41.379996,-0.023 -64.615996,-21.394 -64.599996,-65.1 l 0,-450.1 c -0.016,-40.824 20.875,-62.209 62.199996,-62.2 l 452.000004,0 c 41.303,-0.009 62.226,20.311 62.2,62.2 l 0,450.1 c 0.026,42.641 -20.897,65.077 -63.5,65.1 0,0 -448.488004,0.119 -448.300004,0 z" /><g
       id="g3033"
       transform="matrix(22.628911,0,0,22.628911,6229.2347,-22598.678)" /><g
       id="g6049"
       transform="matrix(0.78571428,0,0,0.78571428,-28.351694,1.064906)"><path
         id="path4165"
         style="fill:#ffffff;fill-opacity:1;fill-rule:evenodd;stroke:none"
         d="m 478.80754,285.11206 -0.48069,48.55596 -8.44236,10.52444 10.30229,75.87902 -31.49197,212.82558 c -2.11055,14.03873 -5.97664,27.98547 -15.7564,39.55866 -5.6422,6.64218 -12.83085,12.51158 -20.95976,16.79864 -6.31096,3.40388 -13.37409,5.31742 -20.85535,5.31742 l -149.16332,0 c 12.80991,4.34225 21.39861,12.40118 21.39861,21.56407 0,2.35511 -0.56422,4.63664 -1.62998,6.78936 l 103.23159,0 0,-7.37815 c 0,-4.04787 3.82411,-7.37814 8.48421,-7.37814 l 3.92864,0 c 4.68095,0 8.48421,3.33027 8.48421,7.37814 l 0,7.37815 0.20907,0 0,19.57695 -330.236673,0 0,-19.57695 0.104535,0 0,-7.37815 c 0,-4.04787 3.84507,-7.37814 8.484209,-7.37814 l 3.928655,0 c 4.66006,0 8.484223,3.33027 8.484223,7.37814 l 0,7.37815 101.058291,0 c -1.08664,-2.15272 -1.65086,-4.43425 -1.65086,-6.78936 0,-9.16289 8.60959,-17.22182 21.4404,-21.56407 l -112.25913,0 c -13.186068,0 -26.769171,-0.0553 -39.599976,-3.27509 C 32.968291,688.1504 21.64208,681.7658 12.238389,673.57809 2.1033081,664.76478 -5.3778476,653.83555 -7.2376901,641.34237 L -38.12358,429.51036 l 10.95007,-86.34827 -7.272171,-8.9973 -0.229877,-49.05273 102.040454,0 -9.069335,-13.43155 -31.61728,0 -16.8221541,-28.31664 30.9276761,0 -13.603996,-21.03048 -30.9067826,0 -18.7028894,-30.69016 31.1784464,0 -15.9862715,-25.83272 -31.1784459,0 -23.049486,-34.66443 33.100981,0 -11.702367,-18.30738 30.7814118,-0.23919 12.7054204,18.54657 432.9248758,0 11.76507,-18.54657 31.6799,0.23919 -10.78284,18.30738 29.50666,0 -20.35368,34.66443 -31.1785,0 -16.00718,25.83272 30.63512,0 -17.78342,30.69016 -33.10099,0 -11.74422,21.03048 31.1785,0 -18.55658,28.31664 -30.17542,0 -9.75891,13.43155 108.56031,0 -1.42093,0 z m -136.47894,-0.22079 8.19174,-13.21076 -261.276239,0 8.860364,13.21076 244.224135,0 z"
         inkscape:connector-curvature="0" /><path
         id="path4167"
         style="fill:#fccf34;fill-opacity:1;fill-rule:nonzero;stroke:none"
         d="m 478.80754,285.11206 -0.48069,48.55596 -8.44236,10.52444 10.30229,75.87902 -31.49197,212.82558 c -2.11055,14.03873 -5.97664,27.98547 -15.7564,39.55866 -5.6422,6.64218 -12.83085,12.51158 -20.95976,16.79864 -6.31096,3.40388 -13.37409,5.31742 -20.85535,5.31742 l -149.16332,0 c 12.80991,4.34225 21.39861,12.40118 21.39861,21.56407 0,2.35511 -0.56422,4.63664 -1.62998,6.78936 l 103.23159,0 0,-7.37815 c 0,-4.04787 3.82411,-7.37814 8.48421,-7.37814 l 3.92864,0 c 4.68095,0 8.48421,3.33027 8.48421,7.37814 l 0,7.37815 0.20907,0 0,19.57695 -330.236673,0 0,-19.57695 0.104535,0 0,-7.37815 c 0,-4.04787 3.84507,-7.37814 8.484209,-7.37814 l 3.928655,0 c 4.66006,0 8.484223,3.33027 8.484223,7.37814 l 0,7.37815 101.058291,0 c -1.08664,-2.15272 -1.65086,-4.43425 -1.65086,-6.78936 0,-9.16289 8.60959,-17.22182 21.4404,-21.56407 l -112.25913,0 c -13.186068,0 -26.769171,-0.0553 -39.599976,-3.27509 C 32.968291,688.1504 21.64208,681.7658 12.238389,673.57809 2.1033081,664.76478 -5.3778476,653.83555 -7.2376901,641.34237 L -38.12358,429.51036 l 10.95007,-86.34827 -7.272171,-8.9973 -0.229877,-49.05273 102.040454,0 -9.069335,-13.43155 -31.61728,0 -16.8221541,-28.31664 30.9276761,0 -13.603996,-21.03048 -30.9067826,0 -18.7028894,-30.69016 31.1784464,0 -15.9862715,-25.83272 -31.1784459,0 -23.049486,-34.66443 33.100981,0 -11.702367,-18.30738 30.7814118,-0.23919 12.7054204,18.54657 432.9248758,0 11.76507,-18.54657 31.6799,0.23919 -10.78284,18.30738 29.50666,0 -20.35368,34.66443 -31.1785,0 -16.00718,25.83272 30.63512,0 -17.78342,30.69016 -33.10099,0 -11.74422,21.03048 31.1785,0 -18.55658,28.31664 -30.17542,0 -9.75891,13.43155 108.56031,0 m -137.89988,-0.22079 8.19174,-13.21076 -261.276236,0 8.860364,13.21076 244.224132,0 z"
         inkscape:connector-curvature="0" /><path
         id="path4169"
         style="fill:#231f20;fill-opacity:1;fill-rule:evenodd;stroke:none"
         d="M 446.34805,469.01382 430.21549,606.40197 218.08925,621.83904 14.133719,604.81963 -3.8168874,469.01382 l 450.1649374,0 z"
         inkscape:connector-curvature="0" /><path
         id="path4171"
         style="fill:#ffffff;fill-opacity:1;fill-rule:evenodd;stroke:none"
         d="m 52.996022,376.37296 c -2.737525,-4.43425 -6.478102,-7.81972 -11.97403,-9.67807 -9.696247,-3.33029 -20.646317,-0.33118 -26.560201,7.17575 -5.0988792,6.62378 -5.0988792,15.38188 0.06269,21.95047 5.830284,7.45173 16.863954,10.45084 26.497508,7.19415 5.51682,-1.82154 9.236505,-5.37261 11.974016,-9.77006 2.716632,4.39745 6.41541,7.96693 11.890445,9.80686 9.508169,3.21989 20.70901,0.11039 26.476601,-7.17576 5.266064,-6.62378 5.266064,-15.28988 0.104535,-21.95045 -5.746698,-7.41495 -16.989339,-10.56125 -26.581093,-7.34135 -5.475035,1.87673 -9.111121,5.35421 -11.890445,9.78846"
         inkscape:connector-curvature="0" /><path
         id="path4173"
         style="fill:#ffffff;fill-opacity:1;fill-rule:evenodd;stroke:none"
         d="m 388.96261,376.92494 c -2.71663,-4.43424 -6.41535,-8.05893 -11.95315,-9.89886 -9.4246,-3.1095 -20.66714,-0.29438 -26.41386,7.10216 -5.22434,6.69737 -5.32873,15.23469 -0.20907,21.98725 5.74672,7.61735 17.01026,10.63485 26.62293,7.32295 5.70489,-1.96873 9.04844,-5.26222 11.95315,-9.67806 2.73749,4.36065 6.4572,7.81972 11.89046,9.73326 9.52899,3.2567 20.87607,0.0368 26.58095,-7.37815 4.30494,-5.51982 5.16165,-12.32758 2.06886,-18.45457 -4.40919,-8.79491 -14.48156,-13.02676 -25.07647,-11.49961 -7.35574,1.06717 -12.14123,5.24383 -15.4638,10.76363"
         inkscape:connector-curvature="0" /><path
         id="path4175"
         style="fill:#231f20;fill-opacity:1;fill-rule:evenodd;stroke:none"
         d="m 220.37747,717.57099 c 6.89605,0 12.55916,-2.9255 12.55916,-6.51337 0,-3.66148 -5.66311,-6.56857 -12.55916,-6.56857 -6.95872,0 -12.62183,2.90709 -12.62183,6.56857 0,3.58787 5.66311,6.51337 12.62183,6.51337"
         inkscape:connector-curvature="0" /><path
         id="path4177"
         style="fill:#231f20;fill-opacity:1;fill-rule:evenodd;stroke:none"
         d="m 397.82926,191.84562 -355.94004,0 -15.7773,-25.86953 387.4946,0 -15.77726,25.86953 z"
         inkscape:connector-curvature="0" /><path
         id="path4179"
         style="fill:#231f20;fill-opacity:1;fill-rule:evenodd;stroke:none"
         d="m 366.17021,243.52947 -292.601017,0 -13.43681,-20.23931 318.576067,0 -12.53824,20.23931 z"
         inkscape:connector-curvature="0" /><path
         id="path4181"
         style="fill:#ffffff;fill-opacity:1;fill-rule:evenodd;stroke:none"
         d="m 478.80754,285.11206 -0.48069,48.55596 -8.44236,10.50603 10.30229,75.87903 -31.53381,212.84398 c -2.00602,14.02032 -5.9348,27.98547 -15.71456,39.54026 -5.6422,6.66058 -12.8517,12.52998 -20.95976,16.85384 -6.31096,3.36708 -13.37409,5.24381 -20.83436,5.24381 l -149.18431,0 c 12.80991,4.37906 21.44041,12.43799 21.44041,21.60088 0,2.33672 -0.56423,4.63664 -1.67178,6.78936 l 103.23159,0 0,-7.37815 c 0,-4.04787 3.82411,-7.37814 8.48421,-7.37814 l 3.92864,0 c 4.61826,0 8.48421,3.33027 8.48421,7.37814 l 0,7.37815 0.20907,0 0,19.57695 -330.236673,0 0,-19.57695 0.104535,0 0,-7.37815 c 0,-4.04787 3.80327,-7.37814 8.484209,-7.37814 l 3.928655,0 c 4.66006,0 8.484223,3.33027 8.484223,7.37814 l 0,7.37815 101.058291,0 c -1.08664,-2.15272 -1.67177,-4.45264 -1.67177,-6.78936 0,-9.16289 8.6305,-17.22182 21.44042,-21.60088 l -112.280039,0 c -13.165162,0 -26.769157,0 -39.558177,-3.23828 C 32.947399,688.1504 21.600294,681.7658 12.175696,673.57809 2.0615082,664.80159 -5.3778476,653.83555 -7.2376901,641.34237 l -30.9485829,-211.83201 10.970977,-86.38507 -7.272185,-9.01568 -0.229877,-48.99755 102.082254,0 -9.069335,-13.43155 -31.638187,0 -16.8430469,-28.33503 30.9485829,0 -13.583103,-21.04889 -30.9276754,0 -18.7237966,-30.65336 31.2202464,0 -15.9862715,-25.88793 -31.1784459,0 -23.070379,-34.60922 33.080074,0 -11.660567,-18.36258 30.7605048,-0.18399 12.7054204,18.54657 432.9039428,0 11.80691,-18.54657 31.70075,0.18399 -10.76185,18.36258 29.46481,0 -20.35367,34.60922 -31.13666,0 -16.04902,25.88793 30.63512,0 -17.78342,30.65336 -33.10099,0 -11.74422,21.04889 31.2412,0 -18.61928,28.33503 -30.17542,0 -9.75891,13.43155 108.56031,0 -1.42093,0 z m -136.47894,-0.22079 8.19174,-13.21076 -261.276239,0 8.860364,13.21076 244.224135,0 z"
         inkscape:connector-curvature="0" /><path
         id="path4183"
         style="fill:#231f20;fill-opacity:1;fill-rule:evenodd;stroke:none"
         d="m 13.214237,324.61552 0.06269,13.22915 419.676033,0 0,-13.22915 -419.738726,0 z"
         inkscape:connector-curvature="0" /><path
         id="path4185"
         style="fill:#231f20;fill-opacity:1;fill-rule:evenodd;stroke:none"
         d="m 92.752716,632.15005 253.460684,0 0,50.91108 -253.460684,0 0,-50.91108 z"
         inkscape:connector-curvature="0" /><path
         id="path4187"
         style="fill:#231f20;fill-opacity:1;fill-rule:evenodd;stroke:none"
         d="m 238.48063,618.84178 193.27718,-11.11321 16.23696,-138.45532 -209.51414,0 0,149.56853 z"
         inkscape:connector-curvature="0" /><path
         id="path4189"
         style="fill:#231f20;fill-opacity:1;fill-rule:evenodd;stroke:none"
         d="m -5.3862447,469.27142 18.0132847,136.83615 187.90657,13.28435 0,-150.1205 -205.9198547,0 z"
         inkscape:connector-curvature="0" /><path
         id="path4191"
         style="fill:#231f20;fill-opacity:1;fill-rule:evenodd;stroke:none"
         d="m 51.771446,375.98658 c -2.779311,-4.41586 -6.561674,-7.85654 -12.057616,-9.73326 -9.779832,-3.3487 -20.792595,-0.3312 -26.748264,7.23094 -5.1824793,6.62378 -5.1824793,15.49227 0.04184,22.15285 5.872083,7.45175 17.031124,10.43245 26.706478,7.17575 5.579528,-1.85833 9.278306,-5.40941 12.057616,-9.82526 2.737525,4.47105 6.457195,8.02213 11.974016,9.93566 9.633568,3.1463 20.834409,0.0368 26.685586,-7.28615 5.286957,-6.66058 5.307864,-15.38188 0.104535,-22.15285 -5.767606,-7.41495 -17.135617,-10.59805 -26.790078,-7.35975 -5.516821,1.89514 -9.173813,5.44621 -11.974016,9.86207"
         inkscape:connector-curvature="0" /><path
         id="path4193"
         style="fill:#231f20;fill-opacity:1;fill-rule:evenodd;stroke:none"
         d="m 390.18919,376.55695 c -2.69564,-4.45264 -6.41535,-8.13251 -11.99485,-9.97245 -9.52914,-3.14629 -20.87621,-0.2944 -26.64379,7.10216 -5.24518,6.75257 -5.32873,15.40028 -0.20893,22.20804 5.76758,7.63574 17.13551,10.65324 26.85272,7.35975 5.70488,-1.96873 9.09028,-5.28062 11.99485,-9.78847 2.73762,4.47105 6.49904,7.94854 11.95315,9.84367 9.63367,3.34868 21.06429,0.0368 26.81102,-7.41495 4.30479,-5.59341 5.22433,-12.43797 2.0897,-18.62017 -4.47202,-8.85009 -14.60709,-13.06355 -25.26455,-11.53641 -7.39758,1.04877 -12.24576,5.26223 -15.58932,10.81883"
         inkscape:connector-curvature="0" /><path
         id="path4195"
         style="fill:#231f20;fill-opacity:1;fill-rule:evenodd;stroke:none"
         d="m 220.32942,719.68692 c 7.02141,0 12.70542,-2.9807 12.70542,-6.58697 0,-3.62469 -5.68401,-6.60538 -12.70542,-6.60538 -6.95874,0 -12.64274,2.98069 -12.64274,6.60538 0,3.60627 5.684,6.58697 12.64274,6.58697"
         inkscape:connector-curvature="0" /><path
         id="path4197"
         style="fill:#231f20;fill-opacity:1;fill-rule:evenodd;stroke:none"
         d="m 399.11439,190.13448 -358.531232,0 -15.902686,-26.03512 390.357548,0 -15.92363,26.03512 z"
         inkscape:connector-curvature="0" /><path
         id="path4199"
         style="fill:#231f20;fill-opacity:1;fill-rule:evenodd;stroke:none"
         d="m 367.24841,242.16792 -294.774224,0 -13.52041,-20.38651 320.916554,0 -12.62192,20.38651 z"
         inkscape:connector-curvature="0" /></g></g></svg>